#!OML:ASF F:\VICON\USERDATA\INSTALL\rory3\rory3.ASF
:FULLY-SPECIFIED
:DEGREES
168
root 0.7662809385945972 17.819578544955398 37.76828858411406 2.054788847861763 2.381201956908428 0.6784091647699249
lfemur -18.421220939816394 2.1340039102608013 -21.574633963100858
ltibia 60.7473101661725
lfoot 1.9704633556197797 -12.839666911918894
ltoes -7.06713864896121
rfemur -24.69490167979817 5.631813969930436 29.009919925527196
rtibia 59.12358451171328
rfoot 3.356063912030276 -3.816342008250923
rtoes -2.3423158559199053
lowerback 14.13446538259862 -0.3908012479495457 0.6351875646840873
upperback -0.9580036798786147 -0.2861744516966729 1.3209746765417494
thorax -9.277783177253822 0.1278521125704054 1.2434435995292508
lowerneck -20.229632288144614 -4.820054940923511 -1.9856198694622271
upperneck 15.597863686962823 -6.259727264872602 2.8951337921311016
head 8.188598244225492 -3.033096855044304 0.501589069200788
lclavicle -1.9521729781560437e-15 1.1013548979497733e-15
lhumerus -49.07011135831541 -9.073202979451285 97.13766827319176
lradius 111.59969215871833
lwrist 46.54800063275898
lhand -17.88972411200797 6.022286713199093
lfingers 7.125020000000001
lthumb 8.301822531491576 36.119845262986665
rclavicle -1.952176533109819e-15 1.1013521049827522e-15
rhumerus -51.149044674372256 13.587475270132693 -101.83815775889924
rradius 112.93170010212332
rwrist -15.34266314100338
rhand -24.079079971088497 -104.26845066178669
rfingers 7.125020000000001
rthumb 4.513030643739949 14.723685668703764
169
root 0.7781011853678683 17.85034860529671 39.83002689612616 2.2241976694751653 2.8398408063838576 0.968979106690175
lfemur -16.471272054445333 2.6332007469458842 -20.698130885784014
ltibia 63.44774801644656
lfoot 1.2880170077924302 -12.908416168655522
ltoes -7.214444131882427
rfemur -23.572449523235164 5.763467481777159 29.418256647403076
rtibia 59.0055145989834
rfoot 3.0007869970082774 -3.9935162354475944
rtoes -2.6610032260381233
lowerback 14.234604567531694 -0.3479179807160236 0.7720287815725322
upperback -0.9099548418271338 -0.18100084330214683 1.4158669486015762
thorax -9.358420914514742 0.060387061186783386 1.0574516985798417
lowerneck -20.114445856266958 -4.73582008315104 -1.9727721577331678
upperneck 15.562436007165438 -6.333077324478152 2.8756751254077564
head 8.216504108846996 -2.9989447114043326 0.5157931813526018
lclavicle -1.9521729781560437e-15 1.1013548979497733e-15
lhumerus -49.12045734481778 -8.746562419681313 97.2814860426949
lradius 111.21176716358164
lwrist 46.535421139862855
lhand -17.956307879799233 6.0388411004627125
lfingers 7.125020000000001
lthumb 8.147058300687991 36.01201872617955
rclavicle -1.952176533109819e-15 1.1013521049827522e-15
rhumerus -51.181203559090086 13.444081099509393 -101.81849558928171
rradius 112.9986033408652
rwrist -15.169011358887968
rhand -24.21646107695397 -105.66263835245192
rfingers 7.125020000000001
rthumb 4.490770766467498 14.976526753946867
170
root 0.7596149195272272 17.791224008189435 37.46963072773757 2.0490230177882385 2.4026911893501968 0.7002352304849393
lfemur -17.953481842074602 2.2673687943126195 -21.5366289423609
ltibia 65.91739205496701
lfoot 1.3192244296591955 -12.380943092037603
ltoes -7.459972993020232
rfemur -25.245546879468584 5.32613836994644 28.776220029673915
rtibia 59.36614694006924
rfoot 2.706871469740632 -4.343915165450683
rtoes -2.223878035638031
lowerback 14.312352448881276 -0.3407752674545738 0.8241865948012801
upperback -0.8516443752378027 -0.041357923143904074 1.513988492521539
thorax -9.39576636396286 0.024379264811861645 1.0004714604520537
lowerneck -20.03809957283112 -4.62943249929065 -1.963414835233348
upperneck 15.588796858225189 -6.382182516650942 2.8813897190556257
head 8.216448912352257 -3.0221251952760437 0.4990561894032207
lclavicle -1.9521729781560437e-15 1.1013548979497733e-15
lhumerus -49.69668071985974 -8.853651024766123 97.24865549687301
lradius 110.84728149935518
lwrist 46.83028619601671
lhand -17.94953173463496 6.109161321185735
lfingers 7.125020000000001
lthumb 8.165341444601447 36.09978278583903
rclavicle -1.952176533109819e-15 1.1013521049827522e-15
rhumerus -51.24096272206458 13.301140299886256 -101.8145020311543
rradius 113.19150709353687
rwrist -15.385710400925985
rhand -24.125087868174727 -104.24460787744465
rfingers 7.125020000000001
rthumb 4.434023289304723 15.062065115072585
171
root 0.7574457033618578 17.77227697211414 37.53944663670375 2.0739207062480283 2.364656506883418 0.5987667964071928
lfemur -17.79614025748245 2.3361731094181666 -20.81693060479616
ltibia 68.13985874130903
lfoot 1.2468960317304831 -11.91515697138109
ltoes -7.868432244753627
rfemur -21.99774189888398 5.517324062817762 29.37824663558947
rtibia 60.82652148393591
rfoot 2.4888336749233733 -4.702101073689587
rtoes -1.6831310995770612
lowerback 14.487642456308143 -0.26376394081155813 1.0585795051871962
upperback -0.7995416008034912 0.08815574653279068 1.5796800935997775
thorax -9.31813183158482 0.09710476570034621 1.0986504996758186
lowerneck -20.07158468725256 -4.620138172254277 -1.9813161018269156
upperneck 15.501217625713748 -6.509706138465187 2.8446079787064926
head 8.258040224616098 -2.998713600322054 0.5046953233902596
lclavicle -1.9521729781560437e-15 1.1013548979497733e-15
lhumerus -49.29943449426256 -8.570651641798266 97.38229632995868
lradius 110.63295381159985
lwrist 46.55394156628388
lhand -18.020710094556083 6.0630213054208495
lfingers 7.125020000000001
lthumb 8.09511031602512 36.059482478970395
rclavicle -1.952176533109819e-15 1.1013521049827522e-15
rhumerus -51.27844575771083 13.193385849804946 -101.81019307660232
rradius 113.43519579275898
rwrist -15.706733643920405
rhand -24.219261492267417 -103.9213453253627
rfingers 7.125020000000001
rthumb 4.4959932670716505 15.132205454708629
172
root 0.7555107537290661 17.76570729943267 37.491092733713955 2.130344297313806 2.372350757800905 0.5927764650834348
lfemur -19.622151179256704 2.127223184669624 -21.3077713434029
ltibia 70.07109939587478
lfoot 0.9662505908385187 -11.580785407484225
ltoes -7.641227598528109
rfemur -24.230363028968505 4.96157721692694 28.43641974667748
rtibia 61.697717990431215
rfoot 1.8421209908806473 -5.114302081134497
rtoes -1.0448833539755462
lowerback 14.61363557399108 -0.21973487197311264 1.2157016320559362
upperback -0.7692108329672717 0.19955396728768615 1.6298611574129478
thorax -9.480146021226286 0.016543327289260945 0.7037750248635541
lowerneck -20.041103670765068 -4.561184465957315 -1.9843921767209698
upperneck 15.51727168094445 -6.542803391827442 2.8637889844323037
head 8.282706931244608 -3.0008558184177323 0.5023106165523714
lclavicle -1.9521729781560437e-15 1.1013548979497733e-15
lhumerus -49.94858709493809 -8.829413249179813 97.3551186918728
lradius 110.29717679306906
lwrist 46.75945298098007
lhand -18.04172738477759 6.110022267369027
lfingers 7.125020000000001
lthumb 8.088186623539576 36.11509413086984
rclavicle -1.952176533109819e-15 1.1013521049827522e-15
rhumerus -51.14424467997111 13.199868048189124 -101.74692005029858
rradius 113.56577095707938
rwrist -16.027801781506586
rhand -24.064417648763893 -99.35531220380904
rfingers 7.125020000000001
rthumb 4.385492287402442 15.131549147191876
173
root 0.7604310073634923 17.793530027263373 38.58919879220627 2.243262296851115 2.6530255700386487 0.6503953420082762
lfemur -18.46818656734083 2.412268739818415 -20.99170599718521
ltibia 71.19170387983193
lfoot -0.0701972337581862 -12.26524581583702
ltoes -7.828551047738874
rfemur -24.597056612905938 4.982539387427565 28.53452820847734
rtibia 62.91227607152973
rfoot 1.709789467968839 -5.043786716434275
rtoes -0.6372658550940594
lowerback 14.688852027018893 -0.18483842628714403 1.3070879610512864
upperback -0.7754038793785755 0.24331411978401546 1.6473939815769358
thorax -9.49394548498447 0.06566084448651466 0.6142672761548764
lowerneck -20.150520088994217 -4.647644421887996 -2.01656639953652
upperneck 15.406929094207301 -6.658644063828819 2.83316514086126
head 8.292809947339334 -3.0029661988262015 0.49995227767633155
lclavicle -1.9521729781560437e-15 1.1013548979497733e-15
lhumerus -50.33560409958028 -8.795700006646497 97.43026761813124
lradius 110.09088872843554
lwrist 46.5925907833373
lhand -18.097671153526854 6.193338476364716
lfingers 7.125020000000001
lthumb 8.017847130433807 36.09393870671858
rclavicle -1.952176533109819e-15 1.1013521049827522e-15
rhumerus -50.89284148842619 13.26632796471481 -101.64639002254586
rradius 113.57879063750686
rwrist -16.155589594431394
rhand -24.18591300084525 -104.38325301304039
rfingers 7.125020000000001
rthumb 4.452783313566378 14.969035961148434
